<svg width="238" height="40" viewBox="0 0 238 40" xmlns="http://www.w3.org/2000/svg" xmlns:xlink="http://www.w3.org/1999/xlink" id="Layer_1" overflow="hidden"><path d="M217.503 31.55C217.456 30.57 216.664 30.394 215.858 30.394 215.179 30.394 214.506 30.394 213.83 30.394 213.83 31.938 213.83 33.483 213.83 35.028 214.019 35.028 214.211 35.028 214.4 35.028 214.4 34.317 214.4 33.605 214.4 32.892 214.748 32.892 215.097 32.892 215.443 32.892 215.885 33.605 216.325 34.317 216.767 35.028 216.995 35.028 217.222 35.028 217.447 35.028 216.98 34.314 216.514 33.6 216.045 32.886 216.93 32.847 217.546 32.538 217.503 31.55ZM214.4 32.441C214.4 31.892 214.4 31.342 214.4 30.795 214.844 30.795 215.286 30.795 215.727 30.795 216.293 30.795 216.886 30.908 216.886 31.62 216.886 32.331 216.293 32.441 215.727 32.441 215.286 32.441 214.845 32.441 214.4 32.441Z" fill="#231F20"/><path d="M215.38 28.562C213.083 28.562 211.222 30.421 211.222 32.717 211.222 35.011 213.083 36.868 215.38 36.868 217.673 36.868 219.531 35.011 219.531 32.717 219.531 30.421 217.673 28.562 215.38 28.562ZM215.38 36.321C213.397 36.321 211.892 34.651 211.892 32.717 211.892 30.779 213.397 29.109 215.38 29.109 217.357 29.109 218.861 30.78 218.861 32.717 218.861 34.651 217.356 36.321 215.38 36.321Z" fill="#231F20"/><path d="M84.672 17.427C85.51 28.137 76.715 37.578 66.062 37.907 54.804 38.256 46.657 28.434 48.881 17.427 60.813 17.427 72.742 17.427 84.672 17.427Z" fill="#EF3E42"/><path d="M83.555 12.53C80.925 5.777 74.411 1.736 67.275 1.922 60.229 2.105 53.8 6.313 50.604 12.53 61.587 12.53 72.571 12.53 83.555 12.53Z" fill="#EF3E42"/><path d="M12.813 17.427C19.226 17.427 25.639 17.427 32.05 17.427 33.379 17.427 34.533 16.349 34.655 15.025 34.782 13.642 33.741 12.531 32.352 12.531 24.677 12.531 17.001 12.531 9.326 12.531 10.3 9.697 11.276 6.862 12.251 4.028 12.501 3.301 13.204 2.784 13.978 2.784 20.735 2.784 27.492 2.784 34.249 2.784 41.153 2.784 46.335 8.46 45.695 15.33 45.086 21.911 39.348 27.138 32.743 27.142 28.521 27.144 24.3 27.145 20.079 27.146 18.902 27.147 17.888 27.887 17.528 28.935 16.761 31.163 15.994 33.395 15.226 35.624 14.976 36.351 14.278 36.869 13.504 36.869 10.393 36.869 7.28 36.869 4.17 36.869 2.516 36.869 1.497 35.3 2.028 33.754 3.331 29.963 4.636 26.171 5.94 22.377 6.938 19.473 9.716 17.427 12.813 17.427Z" fill="#231F20"/><path d="M191.334 36.868C190.616 34.18 189.894 31.491 189.175 28.8 188.904 27.779 188.044 27.144 186.999 27.144 186.002 27.145 185.005 27.145 184.007 27.145 182.831 27.146 181.815 27.886 181.455 28.934 180.69 31.162 179.923 33.394 179.156 35.623 178.905 36.35 178.206 36.868 177.432 36.868 174.323 36.868 171.208 36.868 168.099 36.868 166.445 36.868 165.425 35.299 165.956 33.753 167.262 29.962 168.563 26.17 169.869 22.376 170.867 19.473 173.643 17.427 176.74 17.427 183.153 17.427 189.565 17.427 195.978 17.427 197.307 17.427 198.46 16.349 198.583 15.025 198.71 13.642 197.668 12.531 196.278 12.531 188.603 12.531 180.928 12.531 173.254 12.531 174.228 9.697 175.203 6.862 176.178 4.028 176.427 3.301 177.128 2.784 177.907 2.784 184.662 2.784 191.421 2.784 198.176 2.784 205.079 2.784 210.264 8.46 209.623 15.33 209.194 19.971 206.214 23.936 202.178 25.875 203.161 29.525 204.142 33.178 205.126 36.869 200.529 36.868 195.932 36.868 191.334 36.868Z" fill="#231F20"/><path d="M106.667 12.53C107.535 10.005 108.406 7.478 109.273 4.951 109.644 3.878 108.921 2.783 107.772 2.783 104.359 2.783 100.947 2.783 97.534 2.783 96.76 2.783 96.058 3.3 95.807 4.027 94.832 6.861 93.857 9.696 92.882 12.53 97.478 12.53 102.072 12.53 106.667 12.53Z" fill="#231F20"/><path d="M115.179 36.868C106.027 36.868 96.877 36.868 87.726 36.868 86.073 36.868 85.053 35.299 85.585 33.753 87.458 28.312 89.328 22.869 91.2 17.427 95.794 17.427 100.39 17.427 104.985 17.427 104.343 19.292 103.703 21.156 103.061 23.019 102.53 24.566 103.573 26.136 105.224 26.136 109.122 26.136 113.021 26.136 116.92 26.136 118.572 26.136 119.627 27.702 119.096 29.245 118.365 31.37 117.633 33.497 116.904 35.623 116.65 36.35 115.951 36.868 115.179 36.868Z" fill="#231F20"/><path d="M146.881 3.436C144.354 6.468 141.826 9.5 139.297 12.53 146.105 12.53 152.916 12.53 159.728 12.53 159.473 9.758 159.217 6.984 158.962 4.21 158.884 3.372 158.199 2.783 157.361 2.783 154.333 2.783 151.304 2.783 148.275 2.783 147.735 2.783 147.226 3.024 146.881 3.436Z" fill="#231F20"/><path d="M149.643 36.868C153.086 36.868 156.527 36.868 159.97 36.868 161.007 36.868 161.879 35.924 161.783 34.883 161.248 29.065 160.715 23.245 160.179 17.427 151.856 17.427 143.537 17.427 135.216 17.427 130.911 22.59 126.606 27.752 122.3 32.916 120.99 34.484 121.906 36.868 124.004 36.868 126.741 36.868 129.476 36.868 132.21 36.868 132.752 36.868 133.265 36.599 133.607 36.188 135.868 33.48 138.125 30.771 140.384 28.063 140.879 27.467 141.619 27.142 142.395 27.142 143.32 27.142 144.242 27.142 145.166 27.142 146.369 27.142 147.357 27.975 147.468 29.181 147.659 31.258 147.851 33.335 148.04 35.41 148.119 36.249 148.805 36.868 149.643 36.868Z" fill="#231F20"/></svg>